<?xml version="1.0" encoding="UTF-8" standalone="no"?>
<svg
   xmlns:dc="http://purl.org/dc/elements/1.1/"
   xmlns:cc="http://creativecommons.org/ns#"
   xmlns:rdf="http://www.w3.org/1999/02/22-rdf-syntax-ns#"
   xmlns:svg="http://www.w3.org/2000/svg"
   xmlns="http://www.w3.org/2000/svg"
   xmlns:sodipodi="http://sodipodi.sourceforge.net/DTD/sodipodi-0.dtd"
   xmlns:inkscape="http://www.inkscape.org/namespaces/inkscape"
   width="442.77286mm"
   height="138.81419mm"
   viewBox="0 0 442.77286 138.81419"
   version="1.1"
   id="svg8"
   inkscape:version="1.0.1 (3bc2e813f5, 2020-09-07)"
   sodipodi:docname="ta-symmetry.svg"
   inkscape:export-filename="/home/santhosh/Documents/malayalam/digitaltypography/images/ta-symmetry.png"
   inkscape:export-xdpi="300"
   inkscape:export-ydpi="300">
  <defs
     id="defs2">
    <rect
       x="-271.80611"
       y="284.42882"
       width="212.78139"
       height="126.85844"
       id="rect988" />
    <rect
       x="-269.74686"
       y="308.48434"
       width="108.20553"
       height="53.757225"
       id="rect879" />
    <rect
       x="-271.80612"
       y="284.42883"
       width="212.78139"
       height="126.85844"
       id="rect988-2" />
    <rect
       x="-271.80612"
       y="284.42883"
       width="212.78139"
       height="126.85844"
       id="rect1001" />
    <rect
       x="-271.80612"
       y="284.42883"
       width="212.78139"
       height="126.85844"
       id="rect988-1" />
    <rect
       x="-271.80612"
       y="284.42883"
       width="212.78139"
       height="126.85844"
       id="rect1032" />
    <rect
       x="-271.80612"
       y="284.42883"
       width="212.78139"
       height="126.85844"
       id="rect988-2-6" />
    <rect
       x="-271.80612"
       y="284.42883"
       width="212.78139"
       height="126.85844"
       id="rect1061" />
  </defs>
  <sodipodi:namedview
     id="base"
     pagecolor="#ffffff"
     bordercolor="#666666"
     borderopacity="1.0"
     inkscape:pageopacity="0.0"
     inkscape:pageshadow="2"
     inkscape:zoom="0.49497475"
     inkscape:cx="866.68886"
     inkscape:cy="372.70408"
     inkscape:document-units="mm"
     inkscape:current-layer="text885"
     inkscape:document-rotation="0"
     showgrid="false"
     inkscape:window-width="1920"
     inkscape:window-height="1015"
     inkscape:window-x="1920"
     inkscape:window-y="0"
     inkscape:window-maximized="1" />
  <metadata
     id="metadata5">
    <rdf:RDF>
      <cc:Work
         rdf:about="">
        <dc:format>image/svg+xml</dc:format>
        <dc:type
           rdf:resource="http://purl.org/dc/dcmitype/StillImage" />
        <dc:title />
      </cc:Work>
    </rdf:RDF>
  </metadata>
  <g
     inkscape:label="Layer 1"
     inkscape:groupmode="layer"
     id="layer1"
     transform="translate(282.17598,-109.16092)">
    <g
       aria-label="ട"
       id="text885"
       style="font-style:normal;font-variant:normal;font-weight:normal;font-stretch:normal;font-size:301.028px;line-height:1.25;font-family:Rachana;-inkscape-font-specification:'Rachana, Normal';font-variant-ligatures:normal;font-variant-caps:normal;font-variant-numeric:normal;font-variant-east-asian:normal;letter-spacing:0px;word-spacing:0px;fill:#000000;fill-opacity:1;stroke:none;stroke-width:7.52572">
      <path
         d="m 160.59688,202.99729 q 0,22.04795 -16.60956,33.51289 -16.60955,11.46493 -37.62872,11.46493 -21.019076,0 -37.187585,-5.87945 -16.168503,-5.87946 -25.869603,-15.58055 l 7.34932,-8.81919 q 7.34932,7.64329 22.047955,12.34686 14.698647,4.70356 30.720173,4.70356 16.0216,0 27.04563,-6.17343 11.02405,-6.17342 11.02405,-18.52027 0,-7.93727 -7.64334,-13.52275 -7.64333,-5.58548 -22.04807,-5.58548 H 82.693763 q -18.226311,0 -29.103301,-10.73 -10.87699,-10.73 -10.87699,-26.01658 0,-21.75398 16.75644,-32.92494 16.756447,-11.17097 37.775502,-11.17097 21.019156,0 37.187736,5.73247 16.1686,5.73247 25.86974,15.72754 l -7.9373,8.23124 q -16.46257,-17.05042 -47.62385,-17.05042 -17.932356,0 -29.985242,7.05535 -12.052886,7.05534 -12.052886,19.99014 0,7.64329 5.879453,12.9348 5.879463,5.2915 16.168509,5.2915 h 28.809396 q 22.63603,0 34.83597,9.99507 12.19994,9.99508 12.19994,24.98768 z"
         style="font-style:normal;font-variant:normal;font-weight:normal;font-stretch:normal;font-size:301.028px;font-family:Rachana;-inkscape-font-specification:'Rachana, Normal';font-variant-ligatures:normal;font-variant-caps:normal;font-variant-numeric:normal;font-variant-east-asian:normal;opacity:0.615862;fill:#005c94;stroke-width:0.5;stroke:#000000;stroke-opacity:1;stroke-miterlimit:4;stroke-dasharray:none"
         id="path887" />
      <path
         d="m 42.419502,154.4918 q 0,-22.04795 16.60945,-33.51289 16.609457,-11.46494 37.628512,-11.46494 21.019156,0 37.187746,5.87946 16.16859,5.87946 25.86974,15.58055 l -7.34936,8.81919 q -7.34935,-7.64329 -22.04807,-12.34686 -14.69872,-4.70356 -30.720336,-4.70356 -16.021511,0 -27.045487,6.17343 -11.023985,6.17342 -11.023985,18.52027 0,7.93727 7.643293,13.52275 7.643295,5.58548 22.047959,5.58548 H 120.3224 q 18.2264,0 29.10344,10.73 10.87705,10.73 10.87705,26.01659 0,21.75398 -16.75652,32.92494 -16.75654,11.17096 -37.77571,11.17096 -21.019096,0 -37.187595,-5.73246 -16.168503,-5.73247 -25.869593,-15.72754 l 7.93725,-8.23124 q 16.462472,17.05042 47.623592,17.05042 17.932436,0 29.985386,-7.05535 12.05295,-7.05534 12.05295,-19.99014 0,-7.64329 -5.87948,-12.9348 -5.8795,-5.2915 -16.16859,-5.2915 H 89.455134 q -22.63591,0 -34.835782,-9.99508 -12.19985,-9.99508 -12.19985,-24.98768 z"
         style="font-style:normal;font-variant:normal;font-weight:normal;font-stretch:normal;font-size:301.028px;line-height:1.25;font-family:Rachana;-inkscape-font-specification:'Rachana, Normal';font-variant-ligatures:normal;font-variant-caps:normal;font-variant-numeric:normal;font-variant-east-asian:normal;letter-spacing:0px;word-spacing:0px;opacity:0.615862;fill:#ff9900;fill-opacity:1;stroke:#000000;stroke-width:0.5;stroke-opacity:1;stroke-miterlimit:4;stroke-dasharray:none"
         id="path887-7" />
      <path
         d="m -116.62717,154.5593 q 0,-22.04795 16.60945,-33.51289 16.609354,-11.46494 37.628284,-11.46494 21.019035,0 37.187535,5.87946 16.1684984,5.87946 25.86959258,15.58055 l -7.34931568,8.81919 q -7.3493079,-7.64329 -22.0479479,-12.34686 -14.698639,-4.70356 -30.720159,-4.70356 -16.02142,0 -27.045327,6.17343 -11.023917,6.17342 -11.023917,18.52027 0,7.93727 7.643245,13.52275 7.643248,5.58548 22.047827,5.58548 h 29.103261 q 18.226302,0 29.1032897,10.73 10.8769835,10.73 10.8769835,26.01659 0,21.75398 -16.7564232,32.92494 -16.756449,11.17096 -37.775497,11.17096 -21.018978,0 -37.187378,-5.73246 -16.168443,-5.73247 -25.869533,-15.72754 l 7.93725,-8.23124 q 16.462422,17.05042 47.623355,17.05042 17.932333,0 29.985213,-7.05535 12.052882,-7.05534 12.052882,-19.99014 0,-7.64329 -5.879452,-12.9348 -5.87946,-5.2915 -16.1685,-5.2915 h -28.809272 q -22.635771,0 -34.835596,-9.99508 -12.19985,-9.99508 -12.19985,-24.98768 z"
         style="font-style:normal;font-variant:normal;font-weight:normal;font-stretch:normal;font-size:301.028px;line-height:1.25;font-family:Rachana;-inkscape-font-specification:'Rachana, Normal';font-variant-ligatures:normal;font-variant-caps:normal;font-variant-numeric:normal;font-variant-east-asian:normal;letter-spacing:0px;word-spacing:0px;opacity:0.615862;fill:#b88100;fill-opacity:1;stroke:#000000;stroke-width:0.5;stroke-opacity:1;stroke-miterlimit:4;stroke-dasharray:none"
         id="path887-7-0" />
      <path
         d="m -164.29293,202.05629 q 0,22.04795 -16.60946,33.51289 -16.60946,11.46493 -37.62851,11.46493 -21.01904,0 -37.18754,-5.87945 -16.1685,-5.87946 -25.8696,-15.58055 l 7.34932,-8.81919 q 7.34932,7.64329 22.04795,12.34686 14.69864,4.70356 30.72015,4.70356 16.02151,0 27.04548,-6.17343 11.02398,-6.17342 11.02398,-18.52027 0,-7.93727 -7.64329,-13.52275 -7.64329,-5.58548 -22.04795,-5.58548 h -29.1033 q -18.2263,0 -29.10329,-10.73 -10.87699,-10.73 -10.87699,-26.01658 0,-21.75398 16.75644,-32.92494 16.75644,-11.17097 37.77549,-11.17097 21.01905,0 37.18754,5.73247 16.16851,5.73247 25.8696,15.72754 l -7.93726,8.23124 q -16.46247,-17.05042 -47.62358,-17.05042 -17.93233,0 -29.98521,7.05535 -12.05288,7.05534 -12.05288,19.99014 0,7.64329 5.87945,12.9348 5.87946,5.2915 16.1685,5.2915 h 28.80932 q 22.6359,0 34.83577,9.99507 12.19987,9.99508 12.19987,24.98768 z"
         style="font-style:normal;font-variant:normal;font-weight:normal;font-stretch:normal;font-size:301.028px;line-height:1.25;font-family:Rachana;-inkscape-font-specification:'Rachana, Normal';font-variant-ligatures:normal;font-variant-caps:normal;font-variant-numeric:normal;font-variant-east-asian:normal;letter-spacing:0px;word-spacing:0px;opacity:0.615862;fill:#005c94;fill-opacity:1;stroke:#000000;stroke-width:0.5;stroke-opacity:1;stroke-miterlimit:4;stroke-dasharray:none"
         id="path887-2" />
    </g>
    <text
       xml:space="preserve"
       id="text877"
       style="font-style:normal;font-weight:normal;font-size:10.5833px;line-height:1.25;font-family:sans-serif;letter-spacing:0px;word-spacing:0px;white-space:pre;shape-inside:url(#rect879);fill:#000000;fill-opacity:1;stroke:none;" />
  </g>
</svg>
